<?xml version="1.0" encoding="utf-8"?>
<!-- Generator: Adobe Illustrator 26.0.3, SVG Export Plug-In . SVG Version: 6.00 Build 0)  -->
<svg version="1.1" id="Réteg_1" xmlns="http://www.w3.org/2000/svg" xmlns:xlink="http://www.w3.org/1999/xlink" x="0px" y="0px"
	 viewBox="0 0 16 16" style="enable-background:new 0 0 16 16;" xml:space="preserve">
<style type="text/css">
	.st0{fill:#2D2E82;}
</style>
<path class="st0" d="M14.1,3.7c0.1-1.1-0.1-1.8-0.7-2.5C12.6,0.4,11.3,0,9.6,0H4.7C4.4,0,4.1,0.3,4,0.6L2,13.5C2,13.7,2.1,14,2.4,14
	c0,0,0,0,0.1,0h2.8L5,15.3c-0.1,0.3,0.2,0.7,0.5,0.7c0,0,0.1,0,0.1,0h2.5c0.4,0,0.8-0.3,0.9-0.7l0-0.1l0.5-3l0-0.2l0,0
	c0-0.2,0.2-0.3,0.3-0.3h0.4c1.3,0,2.4-0.3,3.3-0.9c0.4-0.3,0.7-0.6,1-1c0.5-0.6,0.8-1.4,0.9-2.2c0.2-1.2,0.1-2.4-0.6-3.2
	C14.7,4.1,14.4,3.9,14.1,3.7L14.1,3.7L14.1,3.7z M6.5,8.8c0.1-0.1,0.2-0.1,0.3-0.1h1.4c2.8,0,5-1.1,5.7-4.5l0,0
	c0.2,0.1,0.4,0.3,0.5,0.4c0.5,0.6,0.7,1.5,0.4,2.7c-0.3,1.4-0.9,2.3-1.7,2.9c-0.8,0.6-1.8,0.8-3,0.8H9.9c-0.4,0-0.8,0.3-0.9,0.7
	L9,12l-0.5,3l0,0.1l0,0c0,0.2-0.2,0.3-0.3,0.3H5.6c-0.1,0-0.1,0-0.1-0.1c0,0,0,0,0,0L5.7,14L6.5,8.8z"/>
</svg>
